<?xml version="1.0" encoding="UTF-8"?>
<svg id="Logo_Color_-_Text_Black" data-name="Logo Color - Text Black" xmlns="http://www.w3.org/2000/svg" xmlns:xlink="http://www.w3.org/1999/xlink" viewBox="0 0 8741.21 863.26">
  <defs>
    <style>
      .cls-1 {
        fill: url(#Unbenannter_Verlauf_15);
      }
    </style>
    <linearGradient id="Unbenannter_Verlauf_15" data-name="Unbenannter Verlauf 15" x1="-134.25" y1="430.25" x2="865.75" y2="430.25" gradientUnits="userSpaceOnUse">
      <stop offset=".46" stop-color="#df4dd3"/>
      <stop offset=".73" stop-color="#933cd5"/>
      <stop offset="1" stop-color="#442bd9"/>
    </linearGradient>
  </defs>
  <path class="cls-1" d="M1000,863.26H0l112.08-194.12c238.68,87.22,321-111.22,554.05-6.41L390.95,186.12,500-2.76l500,866.03ZM380.78,547.32v-115.4h-131.74l-66.63,115.4h198.37Z"/>
  <g>
    <path d="M1838.89,782.66h-123.57l-50.56-112.33-50.55-112.34-132.93-293.94-132.93,293.94h170.38l50.55,112.34h-271.48l-50.56,112.33h-123.57L1419.51,127.37h123.57l295.82,655.29Z"/>
    <path d="M2249.84,146.09c28.7,12.49,53.67,29.34,74.89,50.55,21.21,21.23,38.07,46.03,50.56,74.42,12.48,28.41,18.72,58.83,18.72,91.27s-6.25,63.05-18.72,91.74c-12.49,28.71-29.34,53.68-50.56,74.89-21.22,21.22-46.19,38.07-74.89,50.55-28.71,12.49-59.3,18.72-91.74,18.72h-93.61l45.87-112.33h47.74c33.7,0,62.72-12.17,87.06-36.51,24.34-24.34,36.51-53.36,36.51-87.06s-12.17-63.03-36.51-86.12c-24.34-24.34-53.36-36.51-87.06-36.51h-131.99v542.96h-112.33V127.37h244.33c32.44,0,63.03,6.25,91.74,18.72Z"/>
    <path d="M2830.24,455.02l249.01,327.64h-140.42l-178.8-234.97-178.8,234.97h-140.42l249.01-327.64-249.01-327.65h140.42l178.8,234.97,178.8-234.97h140.42l-249.01,327.65Z"/>
    <path d="M3821.59,362.34c0,23.73-3.28,46.34-9.83,67.87-6.56,21.53-15.61,41.35-27.15,59.44-11.55,18.11-25.6,34.49-42.12,49.15-16.55,14.67-34.8,26.68-54.76,36.04l133.87,207.82h-133.87l-118.89-184.42h-76.76l45.87-112.33h48.68c33.7,0,62.72-12.17,87.06-36.51,11.23-11.85,19.97-25.27,26.21-40.25,6.23-14.98,9.36-30.57,9.36-46.81s-3.13-31.83-9.36-46.81c-6.24-14.98-14.98-28.08-26.21-39.31-24.34-24.34-53.36-36.51-87.06-36.51h-132.93v542.96h-112.34V127.37h245.27c32.44,0,62.86,6.25,91.27,18.72,28.4,12.49,53.2,29.34,74.42,50.55,21.21,21.23,38.06,46.03,50.55,74.42,12.48,28.41,18.72,58.83,18.72,91.27Z"/>
    <path d="M4027.53,239.71v159.14h244.33l28.09,112.33h-272.41v159.15h328.58v112.33h-440.92V127.37h440.92v112.34h-328.58Z"/>
    <path d="M4657.55,782.66l-262.12-655.29h121.7l199.4,498.96,185.35-498.96h119.82l-243.39,655.29h-120.76Z"/>
    <path d="M5409.25,113.33c46.81,0,90.95,8.89,132.46,26.68,41.5,17.79,77.7,42.12,108.59,73.01,30.9,30.9,55.23,67.1,73.02,108.59,17.79,41.51,26.68,85.66,26.68,132.46s-8.9,90.97-26.68,132.46c-17.79,41.51-42.12,77.7-73.02,108.59s-67.09,55.23-108.59,73.01c-41.51,17.79-85.66,26.68-132.46,26.68s-90.96-8.9-132.46-26.68c-41.51-17.79-77.7-42.12-108.59-73.01-30.89-30.9-55.23-67.08-73.01-108.59-17.79-41.5-26.68-85.66-26.68-132.46s8.89-90.95,26.68-132.46c17.79-41.5,42.12-77.7,73.01-108.59,30.89-30.89,67.08-55.23,108.59-73.01,41.5-17.79,85.66-26.68,132.46-26.68ZM5409.25,225.67c-30.58,0-59.6,5.78-87.06,17.32-27.47,11.55-52.12,28.24-73.96,50.09-21.85,21.85-38.54,46.5-50.08,73.95-11.56,27.47-17.33,56.49-17.33,87.06s5.77,59.77,17.33,87.53c11.54,27.77,28.23,52.58,50.08,74.42,21.84,21.85,46.49,38.38,73.96,49.61,27.46,11.24,56.47,16.85,87.06,16.85s59.76-5.61,87.53-16.85c27.76-11.23,52.57-27.76,74.42-49.61,21.84-21.84,38.38-46.65,49.62-74.42,11.23-27.76,16.85-56.94,16.85-87.53s-5.62-59.59-16.85-87.06c-11.24-27.46-27.78-52.1-49.62-73.95-21.86-21.84-46.66-38.53-74.42-50.09-27.77-11.54-56.96-17.32-87.53-17.32Z"/>
    <path d="M6170.32,146.09c28.7,12.49,53.67,29.34,74.89,50.55,21.21,21.23,38.07,46.03,50.56,74.42,12.48,28.41,18.72,58.83,18.72,91.27s-6.25,63.05-18.72,91.74c-12.49,28.71-29.34,53.68-50.56,74.89-21.22,21.22-46.19,38.07-74.89,50.55-28.71,12.49-59.3,18.72-91.74,18.72h-93.61l45.87-112.33h47.74c33.7,0,62.72-12.17,87.06-36.51,24.34-24.34,36.51-53.36,36.51-87.06s-12.17-63.03-36.51-86.12c-24.34-24.34-53.36-36.51-87.06-36.51h-131.99v542.96h-112.33V127.37h244.33c32.44,0,63.03,6.25,91.74,18.72Z"/>
    <path d="M6850.89,595.44c0,30.59-5,58.21-14.98,82.85-9.99,24.66-24.19,45.56-42.59,62.72-18.42,17.17-40.72,30.43-66.94,39.78-26.21,9.36-55.55,14.05-88,14.05-51.81,0-97.98-8.28-138.55-24.81-40.58-16.53-73.96-35.41-100.17-56.64l77.7-77.7c20.59,18.72,43.68,33.09,69.28,43.06,15.59,6.24,30.27,10.3,44,12.17,13.72,1.87,24.95,2.81,33.7,2.81,16.22,0,31.04-2.02,44.47-6.09,13.41-4.05,25.11-9.5,35.1-16.38,21.21-15.59,31.83-36.19,31.83-61.78,0-15.59-5.62-29.64-16.85-42.13-8.75-9.97-19.98-18.09-33.7-24.34-11.23-6.23-23.1-11.24-35.58-14.98-12.49-3.74-23.73-7.16-33.7-10.3-3.13-1.24-5.94-2.02-8.43-2.34-2.5-.31-4.68-1.08-6.55-2.34-1.26,0-3.13-.62-5.62-1.87-13.11-3.74-31.99-10.3-56.63-19.65-24.66-9.36-49.15-22.15-73.49-38.38-56.8-38.06-85.19-84.86-85.19-140.42,0-36.81,6.39-67.87,19.19-93.14,12.78-25.27,29.48-45.87,50.08-61.78,20.6-15.92,43.53-27.29,68.81-34.17,25.27-6.86,50.08-10.3,74.42-10.3,44.94,0,82.69,5.31,113.27,15.92,30.57,10.62,54.91,21.23,73.01,31.83,9.37,5.62,17.32,11.09,23.87,16.39,6.55,5.31,12.31,10.15,17.32,14.51l-79.57,80.5c-16.85-16.85-34.02-29.63-51.49-38.38-26.21-12.48-53.68-18.72-82.38-18.72-12.49,0-24.97,1.56-37.45,4.68-12.49,3.13-23.4,7.18-32.76,12.17-27.48,16.85-41.19,39.01-41.19,66.46,0,16.85,5.61,31.21,16.85,43.06,8.1,9.36,19.34,17.79,33.7,25.28,11.85,6.24,24.34,11.23,37.45,14.98,13.11,3.74,25.27,7.18,36.51,10.3l11.23,2.81c3.12,1.26,9.04,3.13,17.79,5.62,8.73,2.5,19.03,6.24,30.89,11.23,11.85,5,24.81,10.92,38.85,17.79,14.04,6.88,27.92,14.98,41.66,24.34,60.53,39.95,90.8,87.06,90.8,141.36Z"/>
    <path d="M7501.49,670.33v112.33h-369.77V128.31h112.34v542.02h257.43Z"/>
    <path d="M8054.73,239.71h-191.91v542.96h-112.34V239.71h-192.84v-112.34h497.09v112.34Z"/>
    <path d="M8537.76,153.12c39.94,17.17,74.73,40.57,104.38,70.21,29.64,29.65,53.04,64.45,70.21,104.38,17.16,39.95,25.74,82.38,25.74,127.31s-8.58,87.38-25.74,127.31c-17.17,39.95-40.57,74.74-70.21,104.38-29.65,29.65-64.45,53.05-104.38,70.21-39.95,17.17-82.38,25.74-127.31,25.74h-116.08l45.87-112.33h70.21c28.69,0,56.17-5.46,82.38-16.39,26.21-10.91,49.61-26.35,70.21-46.34,19.96-20.59,35.41-43.84,46.34-69.74,10.91-25.89,16.38-53.51,16.38-82.85s-5.47-56.17-16.38-82.38c-10.93-26.21-26.38-49.62-46.34-70.21-20.59-19.96-44-35.41-70.21-46.34-26.21-10.91-53.69-16.38-82.38-16.38h-159.14v542.96h-112.34V127.37h271.48c44.93,0,87.36,8.59,127.31,25.75Z"/>
  </g>
</svg>